<svg xml:space="preserve" width="2666.667" height="911.163" xmlns="http://www.w3.org/2000/svg"><defs><clipPath clipPathUnits="userSpaceOnUse" id="a"><path d="M0 683.372h2000V0H0Z"/></clipPath></defs><g clip-path="url(#a)" transform="matrix(1.33333 0 0 -1.33333 0 911.163)"><path d="M0 0c-13.887-17.872-31.311-31.774-52.263-41.704-20.961-9.928-44.511-14.893-70.653-14.893h-84.399l46.162 238.302h84.399c26.142 0 47.769-4.963 64.883-14.893 17.105-9.929 29.158-23.753 36.154-41.455 6.996-17.71 8.152-38.646 3.473-62.803C23.14 38.724 13.889 17.872 0 0m31.864 214.472c-25.647 14.562-57.33 21.845-95.06 21.845h-151.919l-67.32-347.525h151.92c37.73 0 72.233 7.276 103.523 21.844 31.282 14.56 57.387 34.83 78.308 60.818 20.919 25.977 34.745 56.348 41.477 91.1 6.795 35.079 4.751 65.534-6.135 91.349-10.886 25.817-29.154 46.001-54.794 60.569" style="fill:#f36c22;fill-opacity:1;fill-rule:nonzero;stroke:none" transform="translate(426.022 246.48)"/><path d="M0 0c8.73 11.744 19.444 20.93 32.147 27.553 12.701 6.618 26.661 9.93 41.889 9.93 14.894 0 27.409-3.312 37.545-9.93C121.717 20.93 128.968 11.83 133.35.249c3.089-8.19 4.227-17.304 3.498-27.305H-13.92C-10.593-17.077-5.975-8.043 0 0m149.392 70.25c-18.014 11.247-39.922 16.88-65.739 16.88-26.483 0-51.188-5.795-74.113-17.377-22.933-11.588-42.246-27.554-57.933-47.908-15.696-20.355-26.105-43.774-31.234-70.25-5.065-26.15-3.55-49.483 4.561-70.002 8.103-20.525 22.02-36.661 41.76-48.405 19.731-11.753 44.324-17.624 73.786-17.624 23.164 0 44.489 3.723 63.974 11.171 19.478 7.445 36.526 18.121 51.134 32.021l-25.859 38.227c-11.194-9.928-23.192-17.213-36.004-21.843-12.816-4.64-26.666-6.952-41.561-6.952-17.213 0-31.8 3.305-43.751 9.93-11.96 6.617-20.396 16.05-25.3 28.299-3.095 7.713-4.595 16.157-4.517 25.32h208.009c.901 2.978 1.759 6.12 2.571 9.432.802 3.305 1.465 6.283 1.979 8.936 5.386 27.802 4.27 51.958-3.336 72.484-7.613 20.519-20.423 36.406-38.427 47.661" style="fill:#f36c22;fill-opacity:1;fill-rule:nonzero;stroke:none" transform="translate(613.645 316.234)"/><path d="M0 0c8.73 11.744 19.444 20.93 32.147 27.553 12.701 6.618 26.661 9.93 41.889 9.93 14.894 0 27.409-3.312 37.545-9.93C121.717 20.93 128.968 11.83 133.35.249c3.089-8.19 4.227-17.304 3.498-27.305H-13.92C-10.593-17.077-5.975-8.043 0 0m149.392 70.25c-18.014 11.247-39.922 16.88-65.739 16.88-26.483 0-51.188-5.795-74.113-17.377-22.933-11.588-42.246-27.554-57.933-47.908-15.695-20.355-26.105-43.774-31.234-70.25-5.065-26.15-3.55-49.483 4.561-70.002 8.103-20.525 22.02-36.661 41.76-48.405 19.731-11.753 44.324-17.624 73.786-17.624 23.164 0 44.489 3.723 63.974 11.171 19.478 7.445 36.526 18.121 51.134 32.021l-25.859 38.227c-11.194-9.928-23.192-17.213-36.004-21.843-12.816-4.64-26.666-6.952-41.561-6.952-17.213 0-31.8 3.305-43.751 9.93-11.96 6.617-20.396 16.05-25.3 28.299-3.095 7.713-4.595 16.157-4.517 25.32h208.009c.901 2.978 1.759 6.12 2.571 9.432.802 3.305 1.465 6.283 1.979 8.936 5.386 27.802 4.27 51.958-3.336 72.484-7.613 20.519-20.423 36.406-38.427 47.661" style="fill:#f36c22;fill-opacity:1;fill-rule:nonzero;stroke:none" transform="translate(914.358 316.234)"/><path d="M0 0c-6.303 17.042-17.007 29.703-32.112 37.979-15.115 8.269-33.265 12.412-54.441 12.412-23.17 0-44.493-4.554-63.957-13.654-13.141-6.144-24.663-14.098-34.643-23.78l6.674 34.454h-59.081L-288.914-217.7h62.057l25.966 134.045c3.462 17.873 9.388 32.681 17.792 44.434 8.397 11.744 18.802 20.603 31.211 26.56 12.403 5.958 25.886 8.937 40.456 8.937 19.859 0 34.203-5.795 43.052-17.377 8.842-11.588 10.99-29.127 6.439-52.624L-89.831-217.7h62.058L1.655-65.782C6.848-38.973 6.292-17.05 0 0" style="fill:#f36c22;fill-opacity:1;fill-rule:nonzero;stroke:none" transform="translate(1866.43 352.973)"/><path d="M0 0c-21.265 0-38.559 17.211-38.559 38.476 0 21.348 17.294 38.559 38.559 38.559 21.265 0 38.558-17.211 38.558-38.559C38.558 17.211 21.265 0 0 0m-31.939 203.965c-126.02 0-228.126-102.107-228.126-228.126 0-110.546 78.607-202.806 183.03-223.74-16.466 19.196-4.551 57.176-4.551 57.176l43.772 139.92c.331.993-.414 1.903-1.407 1.903h-36.821v15.06h95.901s-36.491-133.88-46.751-172.687c-10.343-38.807 37.235-41.207 37.235-41.207l.331-.579c105.664 19.859 185.513 112.697 185.513 224.154 0 126.019-102.107 228.126-228.126 228.126" style="fill:#f36c22;fill-opacity:1;fill-rule:nonzero;stroke:none" transform="translate(1394.174 382)"/></g></svg>
